<svg width="37" height="39" viewBox="0 0 37 39" fill="none" xmlns="http://www.w3.org/2000/svg">
<path d="M17.4553 11.0576V22.1699H16.9924V11.0576H17.4553ZM23.8449 13.1875V18.9756H23.382V13.1875H23.8449ZM11.0666 13.1875V17.9102H10.6027V13.1875H11.0666ZM7.40839 30.5967L7.1369 30.3486C5.18621 28.5691 3.68158 26.5783 2.61346 24.377C1.54814 22.1812 1.02022 19.9412 1.01874 17.6494C1.01874 13.1445 2.58893 9.34079 5.74335 6.19043C8.79891 3.1388 12.4703 1.57232 16.8019 1.47852L17.2238 1.47363C20.877 1.47363 24.1689 2.58155 27.1242 4.80957C30.0726 7.03239 31.9708 9.88695 32.8439 13.3965L32.8449 13.3984L35.3068 23.2344H29.1691V33.8838H20.6506V38.1436H20.1867V33.4209H26.5627C27.1415 33.4209 27.6757 33.2258 28.0939 32.8076C28.5119 32.3895 28.7062 31.856 28.7062 31.2773V22.7715H34.6857L34.4328 21.7402L32.4094 13.4873L32.4084 13.4824L32.2346 12.8447C31.3083 9.69254 29.5044 7.10858 26.8381 5.11621C24.0061 2.99836 20.7921 1.9375 17.2238 1.9375C13.0235 1.93753 9.39647 3.37039 6.38495 6.22168L6.09491 6.50195C3.02502 9.54489 1.4826 13.2659 1.4826 17.6152C1.48264 19.7144 1.88664 21.7213 2.6955 23.6289L2.86249 24.0088C3.77877 26.0239 5.07845 27.8111 6.75311 29.3682L6.75604 29.3711L7.87128 30.3965V38.1436H7.40839V30.5967Z" fill="#9363C4" stroke="#9363C4" stroke-width="1.66667"/>
</svg>
