<svg width="20" height="22" viewBox="0 0 20 22" fill="none" xmlns="http://www.w3.org/2000/svg">
<path d="M1.88065 11.1024C4.25101 14.1127 6.62766 17.1154 9.00267 20.1202C9.26486 20.4519 9.52978 20.7802 9.81493 21.1373C9.84583 21.0854 9.86907 21.035 9.90051 20.9948C12.4076 17.808 14.9152 14.6222 17.422 11.4348C17.633 11.1662 17.869 10.9166 18.0379 10.61C18.7928 9.24029 19.0859 7.71505 18.898 6.06551C18.5503 3.01194 16.5542 0.710347 14.1021 0.554115C12.3892 0.444924 10.973 1.24257 9.85923 2.88283C9.84009 2.91099 9.8163 2.93365 9.79088 2.96318C9.76026 2.91923 9.73565 2.88593 9.71268 2.8509C7.81065 -0.0213699 4.35381 -0.283016 2.23251 2.33276C0.758079 4.15124 0.338686 6.36493 0.89259 8.85743C1.07905 9.69628 1.38635 10.4747 1.88065 11.102V11.1024ZM4.79453 1.73976C6.55166 1.19278 8.42197 2.1652 9.40074 4.13613C9.5306 4.39743 9.65527 4.66251 9.7958 4.95369C9.93332 4.66972 10.0512 4.41254 10.1794 4.16394C11.1303 2.32177 12.489 1.46335 14.2224 1.63195C16.1586 1.82045 17.7487 3.71894 18.053 6.14208C18.2197 7.47091 18.0254 8.72009 17.4288 9.84427C17.262 10.1585 17.0296 10.4204 16.8158 10.692C14.5116 13.622 12.2055 16.5496 9.89941 19.4771C9.86797 19.5169 9.83435 19.5537 9.79006 19.6052C9.60223 19.3669 9.42042 19.1358 9.23806 18.9054C6.97597 16.0434 4.71059 13.1856 2.45451 10.3161C2.06383 9.81921 1.83909 9.18501 1.6849 8.52025C0.98828 5.51853 2.37851 2.49208 4.79425 1.73976H4.79453Z" fill="#9363C4" stroke="#9363C4" stroke-width="0.8"/>
</svg>
